<!DOCTYPE svg PUBLIC "-//W3C//DTD SVG 20010904//EN" "http://www.w3.org/TR/2001/REC-SVG-20010904/DTD/svg10.dtd">
<svg version="1.0" xmlns="http://www.w3.org/2000/svg" width="145px" height="141px" viewBox="0 0 1450 1410" preserveAspectRatio="xMidYMid meet">
<g id="layer1" fill="#e96868" stroke="none">
 <path d="M1441 634 c0 -11 3 -14 6 -6 3 7 2 16 -1 19 -3 4 -6 -2 -5 -13z"/>
 <path d="M835 10 c11 -5 29 -8 40 -8 16 0 15 2 -5 8 -34 11 -60 11 -35 0z"/>
 </g>
<g id="layer2" fill="#c3acac" stroke="none">
 <path d="M830 625 c0 -8 7 -15 15 -15 8 0 15 7 15 15 0 8 -7 15 -15 15 -8 0 -15 -7 -15 -15z"/>
 <path d="M1190 570 c0 -5 5 -10 10 -10 6 0 10 5 10 10 0 6 -4 10 -10 10 -5 0 -10 -4 -10 -10z"/>
 <path d="M1000 510 c0 -5 5 -10 10 -10 6 0 10 5 10 10 0 6 -4 10 -10 10 -5 0 -10 -4 -10 -10z"/>
 <path d="M1310 385 c0 -8 7 -15 15 -15 8 0 15 7 15 15 0 8 -7 15 -15 15 -8 0 -15 -7 -15 -15z"/>
 <path d="M1320 225 c0 -8 7 -15 15 -15 8 0 15 7 15 15 0 8 -7 15 -15 15 -8 0 -15 -7 -15 -15z"/>
 <path d="M710 105 c0 -8 5 -15 10 -15 6 0 10 7 10 15 0 8 -4 15 -10 15 -5 0 -10 -7 -10 -15z"/>
 </g>
<g id="layer3" fill="#bbbbbb" stroke="none">
 <path d="M624 686 c-3 -8 -4 -23 -2 -33 3 -15 18 -19 93 -26 50 -5 99 -9 110 -10 11 0 22 -3 25 -6 3 -3 23 -15 45 -26 79 -40 107 -74 139 -166 21 -59 21 -172 1 -189 -8 -7 -15 -18 -15 -24 0 -18 -38 -50 -87 -75 -33 -16 -61 -21 -127 -21 -47 0 -97 5 -111 12 -33 15 -56 -2 -35 -27 20 -25 108 -66 170 -81 72 -17 240 -17 314 1 95 23 179 107 197 196 12 66 11 176 -3 202 -45 81 -94 148 -126 171 l-37 26 138 0 c87 0 137 4 137 10 0 6 -7 26 -14 45 l-15 35 -396 0 c-335 0 -396 -2 -401 -14z"/>
 </g>
<g id="layer4" fill="#f05d5d" stroke="none">
 <path d="M4 1388 c3 -13 6 -30 6 -39 0 -14 15 -18 70 -24 38 -4 74 -12 79 -19 6 -7 17 -39 25 -72 25 -96 176 -1032 176 -1085 0 -55 3 -53 -110 -66 l-65 -8 0 -35 0 -35 345 -2 345 -3 -102 50 c-57 27 -103 53 -103 58 0 5 -40 249 -89 543 -110 659 -107 632 -86 653 9 9 29 16 44 16 58 0 123 13 128 27 3 7 2 24 -1 38 l-6 25 -331 0 -331 0 6 -22z"/>
 <path d="M1038 1388 c-8 -13 -27 -47 -42 -75 -36 -72 -233 -405 -306 -518 -33 -50 -60 -97 -60 -104 0 -8 42 -11 162 -9 l162 3 80 135 c315 529 288 492 369 505 37 6 38 7 35 43 l-3 37 -191 3 c-189 2 -192 2 -206 -20z"/>
 </g>

</svg>