<?xml version="1.0" encoding="UTF-8" standalone="no"?>
<svg
   xmlns:dc="http://purl.org/dc/elements/1.1/"
   xmlns:cc="http://creativecommons.org/ns#"
   xmlns:rdf="http://www.w3.org/1999/02/22-rdf-syntax-ns#"
   xmlns:svg="http://www.w3.org/2000/svg"
   xmlns="http://www.w3.org/2000/svg"
   id="svg8"
   version="1.1"
   viewBox="0 0 228 200"
   height="200mm"
   width="228mm">
  <defs
     id="defs2" />
  <metadata
     id="metadata5">
    <rdf:RDF>
      <cc:Work
         rdf:about="">
        <dc:format>image/svg+xml</dc:format>
        <dc:type
           rdf:resource="http://purl.org/dc/dcmitype/StillImage" />
        <dc:title></dc:title>
      </cc:Work>
    </rdf:RDF>
  </metadata>
  <g
     transform="translate(0,-97)"
     id="layer1">
    <g
       id="layer1-1"
       transform="translate(-0.20848714,-0.84277271)">
      <g
         transform="matrix(2.8826452,0,0,2.8231011,-45.906301,-184.99699)"
         id="g150">
        <path
           id="path164"
           d="m 16.112267,135.79727 v -35.30345 l 17.903473,0.14483 c 19.38335,0.15681 20.237108,0.23319 26.820724,2.39975 11.520569,3.79121 19.624556,13.3464 21.785786,25.68701 1.161838,6.63411 0.428,15.13971 -1.783049,20.66646 -3.855092,9.63621 -11.409557,16.79352 -20.982489,19.87939 -5.290463,1.70541 -7.051308,1.82946 -25.968138,1.82946 H 16.112267 Z m 32.911603,21.37148 c 4.587995,-0.95993 9.339894,-4.18409 11.728513,-7.95778 3.175837,-5.0174 4.101465,-14.60855 2.075449,-21.50535 -1.900425,-6.46927 -7.112332,-11.27311 -13.942667,-12.85101 -1.241691,-0.28685 -4.996057,-0.63184 -8.343036,-0.76664 l -6.085417,-0.2451 v 22.15542 22.15541 l 6.097926,-0.24441 c 3.35386,-0.13441 7.165014,-0.46766 8.469232,-0.74054 z"
           style="fill:#cfcfcf;stroke-width:0.35277778" />
        <path
           id="path162"
           d="m 16.112267,135.79686 v -35.30387 l 17.550695,0.14257 c 14.676199,0.11922 18.056793,0.2411 20.640749,0.74413 8.775475,1.70836 14.109355,4.42299 19.487724,9.91808 6.639458,6.78356 9.622882,15.19611 9.260586,26.11267 -0.185716,5.59597 -0.988321,9.31787 -2.902962,13.46186 -5.024428,10.87472 -13.828265,17.59844 -25.760402,19.67391 -2.593383,0.45109 -6.390063,0.55246 -20.725695,0.55338 l -17.550695,0.001 z m 33.129997,21.36753 c 3.621109,-0.87408 6.552431,-2.46842 8.974871,-4.8814 4.086638,-4.07068 5.588575,-8.37159 5.624883,-16.10727 0.01638,-3.48924 -0.146925,-5.42271 -0.610817,-7.23194 -1.434729,-5.59566 -4.916092,-10.10572 -9.544082,-12.36425 -3.759148,-1.83452 -6.001497,-2.26978 -12.968601,-2.51733 l -6.261806,-0.22249 v 22.15871 22.15871 l 6.261806,-0.22336 c 3.652061,-0.13028 7.204518,-0.45093 8.523746,-0.76938 z"
           style="fill:#b1b1b1;stroke-width:0.35277778" />
        <path
           id="path160"
           d="m 16.112267,135.84272 v -35.29755 h 15.359738 c 8.447856,0 16.901293,0.16629 18.785417,0.36953 14.679142,1.58345 24.281581,7.8985 29.748169,19.56389 2.346226,5.00671 2.939401,8.16429 2.915701,15.52074 -0.01711,5.31376 -0.141407,6.79187 -0.761636,9.05772 -2.985954,10.90849 -10.383881,19.55604 -19.854585,23.20832 -6.807281,2.62517 -6.576212,2.60202 -27.407387,2.74551 l -18.785417,0.12939 z m 33.337501,21.33734 c 7.222472,-1.90565 11.846549,-6.57335 13.818429,-13.94878 0.857599,-3.20768 0.846173,-11.27633 -0.0205,-14.46389 -1.524484,-5.6071 -4.608806,-9.64182 -9.212884,-12.05176 -3.810496,-1.99455 -5.889998,-2.41487 -13.139911,-2.65587 l -6.438194,-0.21403 v 22.1536 22.1536 l 6.438194,-0.20719 c 4.114021,-0.1324 7.202307,-0.40881 8.554862,-0.76568 z"
           style="fill:#909090;stroke-width:0.35277778" />
        <path
           id="path158"
           d="m 16.112267,135.81177 v -35.32881 l 17.374306,0.16498 c 18.701576,0.17758 20.042438,0.29098 26.367303,2.22988 11.166352,3.42309 19.036764,11.70077 22.102982,23.24674 0.84081,3.16611 0.936822,4.15298 0.94356,9.69838 0.0067,5.56071 -0.08419,6.51573 -0.916075,9.61961 -2.780697,10.37518 -10.068952,18.87164 -19.478954,22.70806 -6.505385,2.65222 -7.007853,2.70385 -27.784094,2.85478 l -18.609028,0.13519 z m 33.668071,21.348 c 3.453504,-0.95536 6.183016,-2.55145 8.667433,-5.06831 3.704802,-3.75318 5.174008,-7.61119 5.523653,-14.50463 0.451118,-8.8941 -2.263598,-15.71319 -7.818878,-19.6402 -4.148572,-2.93262 -8.558896,-3.97698 -16.84514,-3.98892 l -4.850694,-0.007 v 22.09807 22.09807 l 6.614583,-0.20385 c 4.483396,-0.13816 7.289409,-0.39052 8.709043,-0.78324 z"
           style="fill:#6f6f6f;stroke-width:0.35277778" />
        <path
           id="path156"
           d="m 16.112267,135.78933 v -35.31139 l 17.197917,0.1756 c 18.049546,0.18429 19.509211,0.29712 25.654382,1.98302 11.736356,3.21982 20.541862,12.48179 23.126831,24.3257 2.547895,11.67403 0.08577,22.96821 -6.914336,31.71726 -5.257101,6.57057 -13.12963,10.72189 -22.842404,12.04522 -1.629732,0.22205 -9.609765,0.37598 -19.490972,0.37598 H 16.112267 Z m 33.866667,21.38071 c 6.828466,-2.11577 11.468993,-6.81223 13.249893,-13.4096 0.891847,-3.30387 1.070116,-10.03235 0.360461,-13.60512 -1.565977,-7.88391 -6.424344,-13.22377 -13.979127,-15.36453 -1.267427,-0.35914 -4.182176,-0.61138 -8.538866,-0.73893 l -6.614583,-0.19366 v 22.14051 22.14051 l 6.790972,-0.18399 c 4.975045,-0.1348 7.309809,-0.34476 8.73125,-0.78519 z"
           style="fill:#4e4e4e;stroke-width:0.35277778" />
        <path
           id="path154"
           d="m 16.112267,135.80763 v -35.33871 l 17.021528,0.17973 c 15.159492,0.16006 17.446034,0.25864 20.902084,0.90115 4.067189,0.75612 8.548913,2.11846 10.936111,3.32432 6.944184,3.50777 13.0914,10.34198 15.678429,17.43061 4.417914,12.10537 2.588655,25.86329 -4.697846,35.33264 -2.214856,2.87837 -6.398451,6.68858 -9.07669,8.26658 -2.957326,1.74245 -7.137496,3.3431 -11.076115,4.24124 -2.930497,0.66824 -4.580898,0.73467 -21.431251,0.86257 l -18.25625,0.13858 z m 31.365751,21.86803 c 8.5965,-1.39482 14.347769,-6.84742 16.057105,-15.22326 0.693871,-3.40002 0.706356,-9.5513 0.02598,-12.80307 -1.142555,-5.46069 -4.274513,-9.96767 -8.819674,-12.69175 -3.821791,-2.29053 -5.851944,-2.72998 -13.49375,-2.92086 l -6.790972,-0.16962 v 22.09042 22.09042 l 5.379861,-0.003 c 2.958924,-0.001 6.397574,-0.16779 7.641445,-0.36962 z"
           style="fill:#2e2e2e;stroke-width:0.35277778" />
        <path
           id="path152"
           d="m 16.112267,135.80499 v -35.34171 l 16.492361,0.17864 c 17.732485,0.19209 20.59522,0.43046 26.814806,2.23282 8.691922,2.51883 15.786569,8.41687 19.820975,16.47791 2.103709,4.20336 3.078088,7.77551 3.532064,12.94882 0.964921,10.99582 -2.236096,20.64005 -9.355575,28.18707 -4.449509,4.71671 -10.479271,7.99989 -17.61713,9.59244 -3.342912,0.74585 -4.475226,0.7944 -21.60764,0.92641 l -18.079861,0.13931 z m 32.631945,21.71223 c 7.703273,-1.61732 13.174853,-7.09355 14.812631,-14.82523 0.701079,-3.30967 0.684185,-10.10977 -0.03309,-13.32579 -1.574666,-7.06009 -5.873913,-11.87178 -12.723611,-14.2402 -2.543186,-0.87935 -3.298321,-0.9665 -9.552458,-1.10247 l -6.790972,-0.14764 v 22.08603 22.08602 l 5.909028,-0.006 c 3.820084,-0.004 6.782019,-0.18941 8.378472,-0.52459 z"
           style="fill:#000000;stroke-width:0.35277778" />
      </g>
      <rect
         style="stroke-width:0.43018714"
         y="182.74205"
         x="85.734734"
         height="30.201456"
         width="142.72192"
         id="rect201" />
    </g>
  </g>
</svg>
